<svg width="200" height="200" viewBox="0 0 200 200" fill="none" xmlns="http://www.w3.org/2000/svg">
<path d="M189.932 157.263C144.104 133.443 100.937 134.608 70.3987 141.011C67.0554 122.875 75.2632 101.759 93.7083 81.3319C94.1989 80.7909 94.5353 80.4124 94.6935 80.2142C95.1663 79.6178 95.2573 78.8053 94.9269 78.1196C94.5966 77.434 93.9042 77 93.1445 77H66.0623C65.0613 77 64.2166 77.751 64.0979 78.7478C64.0425 79.2135 57.997 125.762 9.97506 154.086C9.03342 154.641 8.71888 155.856 9.27476 156.799C9.6447 157.425 10.3035 157.774 10.982 157.774C11.3222 157.774 11.6684 157.685 11.983 157.498C56.3155 131.353 66.1078 89.9362 67.7458 80.9613H70.6736C67.0317 91.0043 54.3472 124.355 37.3738 151.203C30.1769 154.215 26.0938 156.537 25.9197 156.638C24.9761 157.189 24.6576 158.404 25.2076 159.349C25.7575 160.293 26.9682 160.612 27.9138 160.063C28.6616 159.623 103.679 116.889 188.11 160.778C188.401 160.929 188.714 161 189.02 161C189.734 161 190.427 160.612 190.779 159.932C191.279 158.965 190.902 157.768 189.932 157.263ZM74.8774 80.9633H88.7509C70.8418 101.679 63.0237 123.149 66.5332 141.869C57.548 143.952 49.7774 146.439 43.5123 148.777C60.1098 121.115 72.1316 88.6541 74.8774 80.9633Z" fill="white"/>
<path d="M70.3189 141.13L70.3003 141.029C66.9491 122.85 75.1786 101.703 93.6341 81.2649L93.6343 81.2647C94.1253 80.7232 94.4592 80.3474 94.6151 80.1521C95.0642 79.5856 95.1506 78.8141 94.8369 78.163C94.5232 77.512 93.8658 77.1 93.1445 77.1H66.0623C65.1122 77.1 64.31 77.813 64.1972 78.7596C64.1405 79.2365 58.0881 125.825 10.0259 154.172L10.0258 154.172C9.13177 154.699 8.83307 155.852 9.36092 156.748C9.71221 157.343 10.3375 157.674 10.982 157.674C11.3047 157.674 11.6333 157.589 11.932 157.412L11.9322 157.412C56.2283 131.288 66.0117 89.906 67.6474 80.9434L67.6624 80.8613H67.7458H70.6736H70.8163L70.7676 80.9954C67.1253 91.0395 54.4378 124.399 37.4583 151.256L37.4415 151.283L37.4124 151.295C30.2227 154.304 26.1439 156.624 25.9702 156.725L70.3189 141.13ZM70.3189 141.13L70.4192 141.109M70.3189 141.13L70.4192 141.109M70.4192 141.109C100.941 134.71 144.084 133.545 189.886 157.351M70.4192 141.109L189.886 157.351M189.886 157.351C190.807 157.831 191.165 158.968 190.69 159.886C190.356 160.531 189.699 160.9 189.02 160.9C188.729 160.9 188.432 160.832 188.156 160.689C103.695 116.784 28.6508 159.514 27.8636 159.976C26.9656 160.497 25.8161 160.194 25.294 159.299C24.7717 158.401 25.0743 157.248 25.9699 156.725L189.886 157.351ZM74.8774 80.8633H74.8069L74.7832 80.9297C72.0379 88.6191 60.0187 121.073 43.4265 148.726L43.2795 148.971L43.5473 148.871C49.8088 146.534 57.5752 144.048 66.5557 141.967L66.6491 141.945L66.6314 141.851C63.1298 123.171 70.9283 101.732 88.8265 81.0287L88.9695 80.8633H88.7509H74.8774Z" stroke="black" stroke-opacity="0.7" stroke-width="0.2"/>
<mask id="path-3-outside-1" maskUnits="userSpaceOnUse" x="120" y="38" width="65" height="65" fill="black">
<rect fill="white" x="120" y="38" width="65" height="65"/>
<path fill-rule="evenodd" clip-rule="evenodd" d="M151.713 39.7875C151.713 39.3522 152.065 39 152.5 39C152.936 39 153.288 39.3522 153.288 39.7875V46.9588C153.288 47.3941 152.936 47.7463 152.5 47.7463C152.065 47.7463 151.713 47.3941 151.713 46.9588V39.7875ZM151.713 55.659C151.713 55.2237 152.065 54.8715 152.5 54.8715C152.936 54.8715 153.288 55.2237 153.288 55.659V57.5977C153.288 58.033 152.936 58.3852 152.5 58.3852C152.065 58.3852 151.713 58.033 151.713 57.5977V55.659ZM145.762 57.2533C145.544 56.8757 145.062 56.7473 144.686 56.9649C144.31 57.1826 144.18 57.664 144.398 58.0408L145.368 59.7204C145.514 59.9734 145.778 60.1142 146.051 60.1142C146.184 60.1142 146.32 60.0803 146.444 60.0088C146.82 59.7912 146.95 59.3098 146.732 58.9329L145.762 57.2533ZM136.75 43.2198C137.124 43.0022 137.607 43.1306 137.826 43.5082L141.411 49.719C141.629 50.0958 141.499 50.5772 141.123 50.7949C140.999 50.8664 140.863 50.9002 140.73 50.9002C140.457 50.9002 140.193 50.7595 140.047 50.5065L136.461 44.2957C136.244 43.9189 136.373 43.4374 136.75 43.2198ZM141.721 63.3671L140.041 62.3974C139.665 62.1797 139.183 62.3074 138.965 62.6858C138.747 63.0626 138.877 63.544 139.253 63.7617L140.933 64.7314C141.057 64.8029 141.192 64.8368 141.326 64.8368C141.598 64.8368 141.863 64.6961 142.009 64.443C142.227 64.0662 142.097 63.5848 141.721 63.3671ZM126.296 54.4616L132.507 58.0469C132.884 58.2645 133.013 58.7459 132.795 59.1228C132.649 59.375 132.385 59.5165 132.112 59.5165C131.979 59.5165 131.843 59.4827 131.719 59.4111L125.509 55.8259C125.132 55.6082 125.003 55.1268 125.22 54.75C125.438 54.3739 125.92 54.2447 126.296 54.4616ZM139.598 69.7124H137.659C137.224 69.7124 136.872 70.0647 136.872 70.4999C136.872 70.9352 137.224 71.2874 137.659 71.2874H139.598C140.033 71.2874 140.386 70.9352 140.386 70.4999C140.386 70.0647 140.033 69.7124 139.598 69.7124ZM128.959 71.2874H121.787C121.352 71.2874 121 70.9352 121 70.4999C121 70.0647 121.352 69.7124 121.787 69.7124H128.959C129.394 69.7124 129.746 70.0647 129.746 70.4999C129.746 70.9352 129.394 71.2874 128.959 71.2874ZM138.965 78.3141C139.111 78.5671 139.376 78.7078 139.648 78.7078C139.782 78.7078 139.917 78.674 140.041 78.6025L141.721 77.6327C142.097 77.4151 142.227 76.9336 142.009 76.5568C141.791 76.1784 141.308 76.0508 140.933 76.2684L139.253 77.2382C138.877 77.4558 138.747 77.9372 138.965 78.3141ZM126.296 86.5383C126.172 86.6099 126.037 86.6437 125.903 86.6437C125.631 86.6437 125.366 86.503 125.22 86.25C125.003 85.8731 125.132 85.3917 125.509 85.1741L131.719 81.5888C132.095 81.3704 132.577 81.4996 132.795 81.8772C133.013 82.254 132.884 82.7354 132.507 82.9531L126.296 86.5383ZM144.686 84.035C144.81 84.1065 144.946 84.1403 145.079 84.1403C145.352 84.1403 145.616 83.9996 145.762 83.7466L146.732 82.067C146.95 81.6902 146.82 81.2087 146.444 80.9911C146.068 80.7735 145.585 80.9019 145.368 81.2795L144.398 82.9591C144.18 83.3359 144.31 83.8173 144.686 84.035ZM137.143 97.8854C137.009 97.8854 136.874 97.8516 136.75 97.7801C136.373 97.5624 136.244 97.081 136.461 96.7042L140.047 90.4934C140.264 90.1166 140.747 89.9874 141.123 90.205C141.499 90.4227 141.629 90.9041 141.411 91.2809L137.826 97.4917C137.68 97.7439 137.415 97.8854 137.143 97.8854ZM152.5 82.6148C152.065 82.6148 151.713 82.967 151.713 83.4023V85.341C151.713 85.7763 152.065 86.1285 152.5 86.1285C152.936 86.1285 153.288 85.7763 153.288 85.341V83.4023C153.288 82.967 152.936 82.6148 152.5 82.6148ZM151.713 94.0411C151.713 93.6059 152.065 93.2536 152.5 93.2536C152.936 93.2536 153.288 93.6059 153.288 94.0411V101.212C153.288 101.648 152.936 102 152.5 102C152.065 102 151.713 101.648 151.713 101.212V94.0411ZM158.268 82.067L159.238 83.7466C159.384 83.9996 159.649 84.1403 159.921 84.1403C160.055 84.1403 160.19 84.1065 160.314 84.035C160.691 83.8173 160.82 83.3359 160.602 82.9591L159.633 81.2795C159.414 80.9019 158.932 80.7735 158.557 80.9911C158.18 81.2087 158.051 81.6902 158.268 82.067ZM163.59 91.2809C163.372 90.9041 163.501 90.4227 163.878 90.205C164.252 89.9874 164.735 90.1151 164.954 90.4934L168.539 96.7042C168.757 97.081 168.628 97.5625 168.251 97.7801C168.127 97.8516 167.992 97.8855 167.858 97.8855C167.585 97.8855 167.321 97.7447 167.175 97.4917L163.59 91.2809ZM163.28 77.6327L164.96 78.6025C165.084 78.674 165.219 78.7078 165.353 78.7078C165.625 78.7078 165.89 78.5671 166.036 78.3141C166.253 77.9372 166.124 77.4558 165.747 77.2382L164.068 76.2684C163.692 76.0508 163.21 76.1784 162.992 76.5568C162.774 76.9336 162.903 77.4151 163.28 77.6327ZM173.281 81.5886L179.492 85.1739C179.869 85.3915 179.998 85.873 179.78 86.2498C179.634 86.502 179.37 86.6435 179.097 86.6435C178.964 86.6435 178.828 86.6097 178.705 86.5382L172.494 82.9529C172.117 82.7353 171.988 82.2538 172.205 81.877C172.423 81.5002 172.905 81.3702 173.281 81.5886ZM167.341 69.7124H165.403C164.967 69.7124 164.615 70.0647 164.615 70.4999C164.615 70.9352 164.967 71.2874 165.403 71.2874H167.341C167.777 71.2874 168.129 70.9352 168.129 70.4999C168.129 70.0647 167.777 69.7124 167.341 69.7124ZM176.041 69.7124H183.212C183.648 69.7124 184 70.0647 184 70.4999C184 70.9352 183.648 71.2874 183.212 71.2874H176.041C175.606 71.2874 175.254 70.9352 175.254 70.4999C175.254 70.0647 175.606 69.7124 176.041 69.7124ZM162.992 64.443C163.138 64.6961 163.403 64.8368 163.675 64.8368C163.809 64.8368 163.944 64.8029 164.068 64.7314L165.747 63.7617C166.124 63.544 166.253 63.0626 166.036 62.6858C165.817 62.3074 165.335 62.1797 164.96 62.3974L163.28 63.3671C162.903 63.5848 162.774 64.0662 162.992 64.443ZM178.705 54.4616C179.079 54.2447 179.562 54.3724 179.78 54.75C179.998 55.1268 179.869 55.6082 179.492 55.8259L173.281 59.4112C173.157 59.4827 173.022 59.5165 172.888 59.5165C172.616 59.5165 172.351 59.3758 172.205 59.1228C171.988 58.7459 172.117 58.2645 172.494 58.0469L178.705 54.4616ZM159.238 57.2533L158.268 58.9329C158.051 59.3098 158.18 59.7912 158.557 60.0088C158.681 60.0803 158.816 60.1142 158.95 60.1142C159.222 60.1142 159.487 59.9734 159.633 59.7204L160.602 58.0408C160.82 57.664 160.691 57.1826 160.314 56.9649C159.938 56.7473 159.456 56.8757 159.238 57.2533ZM164.271 50.9001C164.137 50.9001 164.002 50.8662 163.878 50.7947C163.501 50.5771 163.372 50.0956 163.59 49.7188L167.175 43.508C167.392 43.1312 167.875 43.002 168.251 43.2196C168.628 43.4373 168.757 43.9187 168.539 44.2955L164.954 50.5063C164.808 50.7586 164.543 50.9001 164.271 50.9001Z"/>
</mask>
<path fill-rule="evenodd" clip-rule="evenodd" d="M151.713 39.7875C151.713 39.3522 152.065 39 152.5 39C152.936 39 153.288 39.3522 153.288 39.7875V46.9588C153.288 47.3941 152.936 47.7463 152.5 47.7463C152.065 47.7463 151.713 47.3941 151.713 46.9588V39.7875ZM151.713 55.659C151.713 55.2237 152.065 54.8715 152.5 54.8715C152.936 54.8715 153.288 55.2237 153.288 55.659V57.5977C153.288 58.033 152.936 58.3852 152.5 58.3852C152.065 58.3852 151.713 58.033 151.713 57.5977V55.659ZM145.762 57.2533C145.544 56.8757 145.062 56.7473 144.686 56.9649C144.31 57.1826 144.18 57.664 144.398 58.0408L145.368 59.7204C145.514 59.9734 145.778 60.1142 146.051 60.1142C146.184 60.1142 146.32 60.0803 146.444 60.0088C146.82 59.7912 146.95 59.3098 146.732 58.9329L145.762 57.2533ZM136.75 43.2198C137.124 43.0022 137.607 43.1306 137.826 43.5082L141.411 49.719C141.629 50.0958 141.499 50.5772 141.123 50.7949C140.999 50.8664 140.863 50.9002 140.73 50.9002C140.457 50.9002 140.193 50.7595 140.047 50.5065L136.461 44.2957C136.244 43.9189 136.373 43.4374 136.75 43.2198ZM141.721 63.3671L140.041 62.3974C139.665 62.1797 139.183 62.3074 138.965 62.6858C138.747 63.0626 138.877 63.544 139.253 63.7617L140.933 64.7314C141.057 64.8029 141.192 64.8368 141.326 64.8368C141.598 64.8368 141.863 64.6961 142.009 64.443C142.227 64.0662 142.097 63.5848 141.721 63.3671ZM126.296 54.4616L132.507 58.0469C132.884 58.2645 133.013 58.7459 132.795 59.1228C132.649 59.375 132.385 59.5165 132.112 59.5165C131.979 59.5165 131.843 59.4827 131.719 59.4111L125.509 55.8259C125.132 55.6082 125.003 55.1268 125.22 54.75C125.438 54.3739 125.92 54.2447 126.296 54.4616ZM139.598 69.7124H137.659C137.224 69.7124 136.872 70.0647 136.872 70.4999C136.872 70.9352 137.224 71.2874 137.659 71.2874H139.598C140.033 71.2874 140.386 70.9352 140.386 70.4999C140.386 70.0647 140.033 69.7124 139.598 69.7124ZM128.959 71.2874H121.787C121.352 71.2874 121 70.9352 121 70.4999C121 70.0647 121.352 69.7124 121.787 69.7124H128.959C129.394 69.7124 129.746 70.0647 129.746 70.4999C129.746 70.9352 129.394 71.2874 128.959 71.2874ZM138.965 78.3141C139.111 78.5671 139.376 78.7078 139.648 78.7078C139.782 78.7078 139.917 78.674 140.041 78.6025L141.721 77.6327C142.097 77.4151 142.227 76.9336 142.009 76.5568C141.791 76.1784 141.308 76.0508 140.933 76.2684L139.253 77.2382C138.877 77.4558 138.747 77.9372 138.965 78.3141ZM126.296 86.5383C126.172 86.6099 126.037 86.6437 125.903 86.6437C125.631 86.6437 125.366 86.503 125.22 86.25C125.003 85.8731 125.132 85.3917 125.509 85.1741L131.719 81.5888C132.095 81.3704 132.577 81.4996 132.795 81.8772C133.013 82.254 132.884 82.7354 132.507 82.9531L126.296 86.5383ZM144.686 84.035C144.81 84.1065 144.946 84.1403 145.079 84.1403C145.352 84.1403 145.616 83.9996 145.762 83.7466L146.732 82.067C146.95 81.6902 146.82 81.2087 146.444 80.9911C146.068 80.7735 145.585 80.9019 145.368 81.2795L144.398 82.9591C144.18 83.3359 144.31 83.8173 144.686 84.035ZM137.143 97.8854C137.009 97.8854 136.874 97.8516 136.75 97.7801C136.373 97.5624 136.244 97.081 136.461 96.7042L140.047 90.4934C140.264 90.1166 140.747 89.9874 141.123 90.205C141.499 90.4227 141.629 90.9041 141.411 91.2809L137.826 97.4917C137.68 97.7439 137.415 97.8854 137.143 97.8854ZM152.5 82.6148C152.065 82.6148 151.713 82.967 151.713 83.4023V85.341C151.713 85.7763 152.065 86.1285 152.5 86.1285C152.936 86.1285 153.288 85.7763 153.288 85.341V83.4023C153.288 82.967 152.936 82.6148 152.5 82.6148ZM151.713 94.0411C151.713 93.6059 152.065 93.2536 152.5 93.2536C152.936 93.2536 153.288 93.6059 153.288 94.0411V101.212C153.288 101.648 152.936 102 152.5 102C152.065 102 151.713 101.648 151.713 101.212V94.0411ZM158.268 82.067L159.238 83.7466C159.384 83.9996 159.649 84.1403 159.921 84.1403C160.055 84.1403 160.19 84.1065 160.314 84.035C160.691 83.8173 160.82 83.3359 160.602 82.9591L159.633 81.2795C159.414 80.9019 158.932 80.7735 158.557 80.9911C158.18 81.2087 158.051 81.6902 158.268 82.067ZM163.59 91.2809C163.372 90.9041 163.501 90.4227 163.878 90.205C164.252 89.9874 164.735 90.1151 164.954 90.4934L168.539 96.7042C168.757 97.081 168.628 97.5625 168.251 97.7801C168.127 97.8516 167.992 97.8855 167.858 97.8855C167.585 97.8855 167.321 97.7447 167.175 97.4917L163.59 91.2809ZM163.28 77.6327L164.96 78.6025C165.084 78.674 165.219 78.7078 165.353 78.7078C165.625 78.7078 165.89 78.5671 166.036 78.3141C166.253 77.9372 166.124 77.4558 165.747 77.2382L164.068 76.2684C163.692 76.0508 163.21 76.1784 162.992 76.5568C162.774 76.9336 162.903 77.4151 163.28 77.6327ZM173.281 81.5886L179.492 85.1739C179.869 85.3915 179.998 85.873 179.78 86.2498C179.634 86.502 179.37 86.6435 179.097 86.6435C178.964 86.6435 178.828 86.6097 178.705 86.5382L172.494 82.9529C172.117 82.7353 171.988 82.2538 172.205 81.877C172.423 81.5002 172.905 81.3702 173.281 81.5886ZM167.341 69.7124H165.403C164.967 69.7124 164.615 70.0647 164.615 70.4999C164.615 70.9352 164.967 71.2874 165.403 71.2874H167.341C167.777 71.2874 168.129 70.9352 168.129 70.4999C168.129 70.0647 167.777 69.7124 167.341 69.7124ZM176.041 69.7124H183.212C183.648 69.7124 184 70.0647 184 70.4999C184 70.9352 183.648 71.2874 183.212 71.2874H176.041C175.606 71.2874 175.254 70.9352 175.254 70.4999C175.254 70.0647 175.606 69.7124 176.041 69.7124ZM162.992 64.443C163.138 64.6961 163.403 64.8368 163.675 64.8368C163.809 64.8368 163.944 64.8029 164.068 64.7314L165.747 63.7617C166.124 63.544 166.253 63.0626 166.036 62.6858C165.817 62.3074 165.335 62.1797 164.96 62.3974L163.28 63.3671C162.903 63.5848 162.774 64.0662 162.992 64.443ZM178.705 54.4616C179.079 54.2447 179.562 54.3724 179.78 54.75C179.998 55.1268 179.869 55.6082 179.492 55.8259L173.281 59.4112C173.157 59.4827 173.022 59.5165 172.888 59.5165C172.616 59.5165 172.351 59.3758 172.205 59.1228C171.988 58.7459 172.117 58.2645 172.494 58.0469L178.705 54.4616ZM159.238 57.2533L158.268 58.9329C158.051 59.3098 158.18 59.7912 158.557 60.0088C158.681 60.0803 158.816 60.1142 158.95 60.1142C159.222 60.1142 159.487 59.9734 159.633 59.7204L160.602 58.0408C160.82 57.664 160.691 57.1826 160.314 56.9649C159.938 56.7473 159.456 56.8757 159.238 57.2533ZM164.271 50.9001C164.137 50.9001 164.002 50.8662 163.878 50.7947C163.501 50.5771 163.372 50.0956 163.59 49.7188L167.175 43.508C167.392 43.1312 167.875 43.002 168.251 43.2196C168.628 43.4373 168.757 43.9187 168.539 44.2955L164.954 50.5063C164.808 50.7586 164.543 50.9001 164.271 50.9001Z" fill="white"/>
<path d="M144.686 56.9649L145.187 57.8309L145.188 57.83L144.686 56.9649ZM145.762 57.2533L146.628 56.7533L146.628 56.7526L145.762 57.2533ZM144.398 58.0408L145.264 57.5408L145.264 57.5407L144.398 58.0408ZM145.368 59.7204L144.502 60.2204L144.502 60.2205L145.368 59.7204ZM146.444 60.0088L145.944 59.1429L145.943 59.1429L146.444 60.0088ZM146.732 58.9329L145.866 59.4329L145.866 59.4331L146.732 58.9329ZM137.826 43.5082L138.692 43.0082L138.691 43.0075L137.826 43.5082ZM136.75 43.2198L137.25 44.0857L137.252 44.0844L136.75 43.2198ZM141.411 49.719L140.545 50.2189L140.545 50.2191L141.411 49.719ZM141.123 50.7949L140.623 49.9289L140.622 49.929L141.123 50.7949ZM140.047 50.5065L139.181 51.0064L139.181 51.0066L140.047 50.5065ZM136.461 44.2957L137.328 43.7957L137.327 43.7956L136.461 44.2957ZM140.041 62.3974L139.54 63.2629L139.541 63.2634L140.041 62.3974ZM141.721 63.3671L142.221 62.5012L142.221 62.5011L141.721 63.3671ZM138.965 62.6858L139.831 63.1859L139.832 63.1844L138.965 62.6858ZM139.253 63.7617L138.753 64.6276L138.753 64.6277L139.253 63.7617ZM140.933 64.7314L141.433 63.8655L141.433 63.8654L140.933 64.7314ZM142.009 64.443L141.143 63.9429L141.143 63.9429L142.009 64.443ZM132.507 58.0469L133.007 57.1809L133.007 57.1808L132.507 58.0469ZM126.296 54.4616L126.796 53.5955L126.796 53.5953L126.296 54.4616ZM132.795 59.1228L133.661 59.624L133.661 59.6229L132.795 59.1228ZM131.719 59.4111L132.22 58.5452L132.219 58.5451L131.719 59.4111ZM125.509 55.8259L125.009 56.6918L125.009 56.6919L125.509 55.8259ZM125.22 54.75L124.355 54.2491L124.354 54.2498L125.22 54.75ZM138.965 78.3141L139.831 77.814L139.831 77.8139L138.965 78.3141ZM140.041 78.6025L139.541 77.7364L139.541 77.7365L140.041 78.6025ZM141.721 77.6327L142.221 78.4987L142.221 78.4986L141.721 77.6327ZM142.009 76.5568L141.143 77.0567L141.143 77.0569L142.009 76.5568ZM140.933 76.2684L141.433 77.1344L141.436 77.133L140.933 76.2684ZM139.253 77.2382L138.753 76.3722L138.753 76.3722L139.253 77.2382ZM126.296 86.5383L125.796 85.6723L125.796 85.6724L126.296 86.5383ZM125.22 86.25L126.086 85.7499L126.086 85.7498L125.22 86.25ZM125.509 85.1741L125.009 84.308L125.009 84.3081L125.509 85.1741ZM131.719 81.5888L132.219 82.4549L132.222 82.4531L131.719 81.5888ZM132.795 81.8772L133.661 81.3771L133.661 81.3765L132.795 81.8772ZM132.507 82.9531L133.007 83.8191L133.007 83.819L132.507 82.9531ZM144.686 84.035L145.187 83.1691L145.187 83.169L144.686 84.035ZM145.762 83.7466L146.628 84.2467L146.628 84.2466L145.762 83.7466ZM146.732 82.067L145.866 81.5669L145.866 81.567L146.732 82.067ZM146.444 80.9911L145.943 81.8566L145.944 81.8571L146.444 80.9911ZM145.368 81.2795L146.234 81.7795L146.234 81.7789L145.368 81.2795ZM144.398 82.9591L145.264 83.4592L145.264 83.4591L144.398 82.9591ZM136.75 97.7801L137.25 96.9142L137.25 96.9141L136.75 97.7801ZM136.461 96.7042L137.327 97.2043L137.328 97.2041L136.461 96.7042ZM140.047 90.4934L139.181 89.9933L139.181 89.9935L140.047 90.4934ZM141.123 90.205L140.622 91.0705L140.623 91.071L141.123 90.205ZM141.411 91.2809L140.545 90.7808L140.545 90.781L141.411 91.2809ZM137.826 97.4917L138.691 97.9929L138.692 97.9916L137.826 97.4917ZM159.238 83.7466L158.372 84.2466L158.372 84.2467L159.238 83.7466ZM158.268 82.067L159.134 81.567L159.134 81.5669L158.268 82.067ZM160.314 84.035L159.814 83.169L159.814 83.169L160.314 84.035ZM160.602 82.9591L159.736 83.4591L159.736 83.4592L160.602 82.9591ZM159.633 81.2795L160.499 80.7795L160.498 80.7788L159.633 81.2795ZM158.557 80.9911L159.057 81.8571L159.058 81.8562L158.557 80.9911ZM163.878 90.205L164.378 91.071L164.38 91.0696L163.878 90.205ZM163.59 91.2809L164.456 90.781L164.455 90.7808L163.59 91.2809ZM164.954 90.4934L164.088 90.9933L164.088 90.9934L164.954 90.4934ZM168.539 96.7042L167.673 97.2042L167.673 97.2043L168.539 96.7042ZM168.251 97.7801L167.751 96.9142L167.751 96.9142L168.251 97.7801ZM167.175 97.4917L166.309 97.9917L166.309 97.9918L167.175 97.4917ZM164.96 78.6025L165.46 77.7365L165.46 77.7364L164.96 78.6025ZM163.28 77.6327L162.78 78.4986L162.78 78.4987L163.28 77.6327ZM166.036 78.3141L165.17 77.8139L165.17 77.814L166.036 78.3141ZM165.747 77.2382L166.247 76.3722L166.247 76.3722L165.747 77.2382ZM164.068 76.2684L163.567 77.1339L163.568 77.1344L164.068 76.2684ZM162.992 76.5568L163.858 77.0569L163.859 77.0554L162.992 76.5568ZM179.492 85.1739L179.992 84.3079L179.992 84.3078L179.492 85.1739ZM173.281 81.5886L172.779 82.4534L172.781 82.4547L173.281 81.5886ZM179.78 86.2498L180.646 86.751L180.646 86.7499L179.78 86.2498ZM178.705 86.5382L179.205 85.6723L179.204 85.6721L178.705 86.5382ZM172.494 82.9529L171.994 83.8189L171.994 83.819L172.494 82.9529ZM172.205 81.877L173.071 82.3771L173.071 82.3771L172.205 81.877ZM162.992 64.443L163.858 63.9429L163.858 63.9429L162.992 64.443ZM164.068 64.7314L163.568 63.8654L163.568 63.8655L164.068 64.7314ZM165.747 63.7617L166.247 64.6277L166.247 64.6276L165.747 63.7617ZM166.036 62.6858L165.17 63.1857L165.17 63.1859L166.036 62.6858ZM164.96 62.3974L165.46 63.2634L165.462 63.2624L164.96 62.3974ZM163.28 63.3671L162.78 62.5011L162.78 62.5012L163.28 63.3671ZM179.78 54.75L180.646 54.2499L180.646 54.2493L179.78 54.75ZM178.705 54.4616L179.204 55.3277L179.206 55.327L178.705 54.4616ZM179.492 55.8259L179.992 56.6919L179.992 56.6918L179.492 55.8259ZM173.281 59.4112L172.781 58.5451L172.781 58.5453L173.281 59.4112ZM172.205 59.1228L173.071 58.6227L173.071 58.6226L172.205 59.1228ZM172.494 58.0469L171.994 57.1808L171.994 57.1809L172.494 58.0469ZM158.268 58.9329L159.134 59.4331L159.134 59.4329L158.268 58.9329ZM159.238 57.2533L160.104 57.7534L160.105 57.7527L159.238 57.2533ZM158.557 60.0088L159.057 59.1429L159.057 59.1429L158.557 60.0088ZM159.633 59.7204L160.499 60.2205L160.499 60.2204L159.633 59.7204ZM160.602 58.0408L159.736 57.5407L159.736 57.5408L160.602 58.0408ZM160.314 56.9649L159.813 57.8305L159.814 57.8309L160.314 56.9649ZM163.878 50.7947L164.378 49.9288L164.378 49.9287L163.878 50.7947ZM163.59 49.7188L164.455 50.2189L164.456 50.2188L163.59 49.7188ZM167.175 43.508L168.041 44.008L168.042 44.0068L167.175 43.508ZM168.251 43.2196L167.75 44.0851L167.751 44.0856L168.251 43.2196ZM168.539 44.2955L167.673 43.7954L167.673 43.7956L168.539 44.2955ZM164.954 50.5063L165.819 51.0076L165.82 51.0063L164.954 50.5063ZM152.5 38C151.513 38 150.713 38.7999 150.713 39.7875H152.713C152.713 39.9045 152.617 40 152.5 40V38ZM154.288 39.7875C154.288 38.7999 153.488 38 152.5 38V40C152.383 40 152.288 39.9045 152.288 39.7875H154.288ZM154.288 46.9588V39.7875H152.288V46.9588H154.288ZM152.5 48.7463C153.488 48.7463 154.288 47.9464 154.288 46.9588H152.288C152.288 46.8418 152.383 46.7463 152.5 46.7463V48.7463ZM150.713 46.9588C150.713 47.9464 151.513 48.7463 152.5 48.7463V46.7463C152.617 46.7463 152.713 46.8418 152.713 46.9588H150.713ZM150.713 39.7875V46.9588H152.713V39.7875H150.713ZM152.5 53.8715C151.513 53.8715 150.713 54.6714 150.713 55.659H152.713C152.713 55.776 152.617 55.8715 152.5 55.8715V53.8715ZM154.288 55.659C154.288 54.6714 153.488 53.8715 152.5 53.8715V55.8715C152.383 55.8715 152.288 55.776 152.288 55.659H154.288ZM154.288 57.5977V55.659H152.288V57.5977H154.288ZM152.5 59.3852C153.488 59.3852 154.288 58.5853 154.288 57.5977H152.288C152.288 57.4807 152.383 57.3852 152.5 57.3852V59.3852ZM150.713 57.5977C150.713 58.5853 151.513 59.3852 152.5 59.3852V57.3852C152.617 57.3852 152.713 57.4807 152.713 57.5977H150.713ZM150.713 55.659V57.5977H152.713V55.659H150.713ZM145.188 57.83C145.084 57.8906 144.954 57.8533 144.897 57.754L146.628 56.7526C146.134 55.8982 145.04 55.604 144.185 56.0999L145.188 57.83ZM145.264 57.5407C145.323 57.6427 145.287 57.7726 145.187 57.8309L144.186 56.099C143.332 56.5925 143.038 57.6853 143.532 58.541L145.264 57.5407ZM146.234 59.2204L145.264 57.5408L143.532 58.5409L144.502 60.2204L146.234 59.2204ZM146.051 59.1142C146.12 59.1142 146.194 59.1509 146.234 59.2203L144.502 60.2205C144.834 60.796 145.437 61.1142 146.051 61.1142V59.1142ZM145.943 59.1429C145.977 59.1236 146.015 59.1142 146.051 59.1142V61.1142C146.354 61.1142 146.663 61.037 146.944 60.8747L145.943 59.1429ZM145.866 59.4331C145.807 59.3311 145.843 59.2011 145.944 59.1429L146.944 60.8748C147.798 60.3812 148.092 59.2884 147.598 58.4328L145.866 59.4331ZM144.896 57.7534L145.866 59.4329L147.598 58.4329L146.628 56.7533L144.896 57.7534ZM138.691 43.0075C138.197 42.1532 137.102 41.8584 136.247 42.3552L137.252 44.0844C137.147 44.1459 137.017 44.1079 136.96 44.0089L138.691 43.0075ZM142.277 49.219L138.692 43.0082L136.96 44.0081L140.545 50.2189L142.277 49.219ZM141.623 51.6608C142.477 51.1673 142.771 50.0745 142.277 49.2188L140.545 50.2191C140.486 50.1171 140.522 49.9872 140.623 49.9289L141.623 51.6608ZM140.73 51.9002C141.033 51.9002 141.342 51.8231 141.623 51.6608L140.622 49.929C140.656 49.9097 140.694 49.9002 140.73 49.9002V51.9002ZM139.181 51.0066C139.513 51.582 140.116 51.9002 140.73 51.9002V49.9002C140.799 49.9002 140.873 49.9369 140.913 50.0064L139.181 51.0066ZM135.595 44.7956L139.181 51.0064L140.913 50.0065L137.328 43.7957L135.595 44.7956ZM136.25 42.3538C135.395 42.8474 135.101 43.9402 135.596 44.7958L137.327 43.7956C137.386 43.8975 137.351 44.0275 137.25 44.0857L136.25 42.3538ZM139.541 63.2634L141.221 64.2332L142.221 62.5011L140.541 61.5314L139.541 63.2634ZM139.832 63.1844C139.773 63.2875 139.641 63.3213 139.54 63.2629L140.542 61.5319C139.689 61.0382 138.593 61.3273 138.098 62.1872L139.832 63.1844ZM139.754 62.8957C139.854 62.954 139.89 63.0839 139.831 63.1859L138.099 62.1856C137.605 63.0413 137.899 64.1341 138.753 64.6276L139.754 62.8957ZM141.433 63.8654L139.754 62.8957L138.753 64.6277L140.433 65.5974L141.433 63.8654ZM141.326 63.8368C141.362 63.8368 141.4 63.8462 141.433 63.8655L140.433 65.5973C140.714 65.7597 141.023 65.8368 141.326 65.8368V63.8368ZM141.143 63.9429C141.183 63.8735 141.256 63.8368 141.326 63.8368V65.8368C141.94 65.8368 142.543 65.5186 142.875 64.9431L141.143 63.9429ZM141.22 64.2331C141.12 64.1748 141.084 64.0449 141.143 63.9429L142.875 64.9432C143.369 64.0875 143.075 62.9947 142.221 62.5012L141.22 64.2331ZM133.007 57.1808L126.796 53.5955L125.796 55.3276L132.007 58.9129L133.007 57.1808ZM133.661 59.6229C134.155 58.7673 133.862 57.6744 133.007 57.1809L132.007 58.9128C131.906 58.8546 131.87 58.7246 131.929 58.6226L133.661 59.6229ZM132.112 60.5165C132.728 60.5165 133.329 60.1964 133.661 59.624L131.93 58.6215C131.969 58.5536 132.041 58.5165 132.112 58.5165V60.5165ZM131.219 60.2771C131.5 60.4394 131.809 60.5165 132.112 60.5165V58.5165C132.148 58.5165 132.186 58.526 132.22 58.5452L131.219 60.2771ZM125.009 56.6919L131.219 60.2772L132.219 58.5451L126.009 54.9598L125.009 56.6919ZM124.354 54.2498C123.86 55.1055 124.154 56.1983 125.009 56.6918L126.009 54.9599C126.11 55.0182 126.145 55.1481 126.086 55.2501L124.354 54.2498ZM126.796 53.5953C125.941 53.1025 124.848 53.3961 124.355 54.2491L126.086 55.2509C126.027 55.3518 125.899 55.3869 125.797 55.3279L126.796 53.5953ZM137.659 70.7124H139.598V68.7124H137.659V70.7124ZM137.872 70.4999C137.872 70.6169 137.776 70.7124 137.659 70.7124V68.7124C136.672 68.7124 135.872 69.5124 135.872 70.4999H137.872ZM137.659 70.2874C137.776 70.2874 137.872 70.3829 137.872 70.4999H135.872C135.872 71.4875 136.672 72.2874 137.659 72.2874V70.2874ZM139.598 70.2874H137.659V72.2874H139.598V70.2874ZM139.386 70.4999C139.386 70.3829 139.481 70.2874 139.598 70.2874V72.2874C140.586 72.2874 141.386 71.4875 141.386 70.4999H139.386ZM139.598 70.7124C139.481 70.7124 139.386 70.6169 139.386 70.4999H141.386C141.386 69.5124 140.586 68.7124 139.598 68.7124V70.7124ZM121.787 72.2874H128.959V70.2874H121.787V72.2874ZM120 70.4999C120 71.4875 120.8 72.2874 121.787 72.2874V70.2874C121.905 70.2874 122 70.3829 122 70.4999H120ZM121.787 68.7124C120.8 68.7124 120 69.5124 120 70.4999H122C122 70.6169 121.905 70.7124 121.787 70.7124V68.7124ZM128.959 68.7124H121.787V70.7124H128.959V68.7124ZM130.746 70.4999C130.746 69.5124 129.946 68.7124 128.959 68.7124V70.7124C128.842 70.7124 128.746 70.6169 128.746 70.4999H130.746ZM128.959 72.2874C129.946 72.2874 130.746 71.4875 130.746 70.4999H128.746C128.746 70.3829 128.842 70.2874 128.959 70.2874V72.2874ZM139.648 77.7078C139.718 77.7078 139.791 77.7445 139.831 77.814L138.099 78.8142C138.431 79.3896 139.034 79.7078 139.648 79.7078V77.7078ZM139.541 77.7365C139.574 77.7173 139.612 77.7078 139.648 77.7078V79.7078C139.951 79.7078 140.26 79.6307 140.541 79.4684L139.541 77.7365ZM141.221 76.7667L139.541 77.7364L140.541 79.4685L142.221 78.4987L141.221 76.7667ZM141.143 77.0569C141.084 76.955 141.12 76.825 141.22 76.7667L142.221 78.4986C143.075 78.0051 143.369 76.9123 142.875 76.0567L141.143 77.0569ZM141.436 77.133C141.331 77.1938 141.201 77.157 141.143 77.0567L142.875 76.0569C142.38 75.1998 141.284 74.9077 140.431 75.4038L141.436 77.133ZM139.754 78.1042L141.433 77.1344L140.433 75.4024L138.753 76.3722L139.754 78.1042ZM139.831 77.8139C139.89 77.9159 139.854 78.0459 139.754 78.1041L138.753 76.3722C137.899 76.8658 137.605 77.9586 138.099 78.8142L139.831 77.8139ZM125.903 87.6437C126.207 87.6437 126.515 87.5666 126.796 87.4043L125.796 85.6724C125.829 85.6532 125.867 85.6437 125.903 85.6437V87.6437ZM124.354 86.7501C124.687 87.3255 125.289 87.6437 125.903 87.6437V85.6437C125.973 85.6437 126.046 85.6804 126.086 85.7499L124.354 86.7501ZM125.009 84.3081C124.154 84.8017 123.86 85.8945 124.354 86.7501L126.086 85.7498C126.145 85.8518 126.11 85.9818 126.009 86.04L125.009 84.3081ZM131.219 80.7227L125.009 84.308L126.009 86.0401L132.219 82.4548L131.219 80.7227ZM133.661 81.3765C133.168 80.5235 132.074 80.2257 131.216 80.7245L132.222 82.4531C132.116 82.5151 131.986 82.4757 131.93 82.3779L133.661 81.3765ZM133.007 83.819C133.862 83.3255 134.155 82.2327 133.661 81.3771L131.929 82.3773C131.87 82.2753 131.906 82.1454 132.007 82.0871L133.007 83.819ZM126.796 87.4044L133.007 83.8191L132.007 82.087L125.796 85.6723L126.796 87.4044ZM145.079 83.1403C145.115 83.1403 145.153 83.1498 145.187 83.1691L144.186 84.9009C144.467 85.0632 144.776 85.1403 145.079 85.1403V83.1403ZM144.896 83.2465C144.936 83.177 145.01 83.1403 145.079 83.1403V85.1403C145.693 85.1403 146.296 84.8222 146.628 84.2467L144.896 83.2465ZM145.866 81.567L144.896 83.2466L146.628 84.2466L147.598 82.567L145.866 81.567ZM145.944 81.8571C145.843 81.7988 145.807 81.6688 145.866 81.5669L147.598 82.5671C148.092 81.7115 147.798 80.6187 146.944 80.1252L145.944 81.8571ZM146.234 81.7789C146.175 81.8808 146.045 81.9157 145.943 81.8566L146.945 80.1256C146.09 79.6312 144.995 79.923 144.501 80.7801L146.234 81.7789ZM145.264 83.4591L146.234 81.7795L144.502 80.7795L143.532 82.4591L145.264 83.4591ZM145.187 83.169C145.287 83.2273 145.323 83.3572 145.264 83.4592L143.532 82.459C143.038 83.3146 143.332 84.4074 144.186 84.9009L145.187 83.169ZM136.25 98.646C136.531 98.8083 136.839 98.8854 137.143 98.8854V96.8854C137.179 96.8854 137.217 96.8949 137.25 96.9142L136.25 98.646ZM135.596 96.2041C135.101 97.0597 135.395 98.1525 136.25 98.646L137.25 96.9141C137.351 96.9724 137.386 97.1024 137.327 97.2043L135.596 96.2041ZM139.181 89.9935L135.595 96.2043L137.328 97.2041L140.913 90.9933L139.181 89.9935ZM141.624 89.3395C140.768 88.8444 139.674 89.139 139.181 89.9933L140.913 90.9935C140.855 91.0942 140.725 91.1303 140.622 91.0705L141.624 89.3395ZM142.277 91.781C142.771 90.9254 142.477 89.8326 141.623 89.3391L140.623 91.071C140.522 91.0127 140.486 90.8827 140.545 90.7808L142.277 91.781ZM138.692 97.9916L142.277 91.7808L140.545 90.781L136.96 96.9918L138.692 97.9916ZM137.143 98.8854C137.758 98.8854 138.359 98.5653 138.691 97.9929L136.96 96.9905C137 96.9226 137.072 96.8854 137.143 96.8854V98.8854ZM152.713 83.4023C152.713 83.5193 152.617 83.6148 152.5 83.6148V81.6148C151.513 81.6148 150.713 82.4147 150.713 83.4023H152.713ZM152.713 85.341V83.4023H150.713V85.341H152.713ZM152.5 85.1285C152.617 85.1285 152.713 85.224 152.713 85.341H150.713C150.713 86.3286 151.513 87.1285 152.5 87.1285V85.1285ZM152.288 85.341C152.288 85.224 152.383 85.1285 152.5 85.1285V87.1285C153.488 87.1285 154.288 86.3286 154.288 85.341H152.288ZM152.288 83.4023V85.341H154.288V83.4023H152.288ZM152.5 83.6148C152.383 83.6148 152.288 83.5193 152.288 83.4023H154.288C154.288 82.4147 153.488 81.6148 152.5 81.6148V83.6148ZM152.5 92.2536C151.513 92.2536 150.713 93.0536 150.713 94.0411H152.713C152.713 94.1581 152.617 94.2536 152.5 94.2536V92.2536ZM154.288 94.0411C154.288 93.0536 153.488 92.2536 152.5 92.2536V94.2536C152.383 94.2536 152.288 94.1581 152.288 94.0411H154.288ZM154.288 101.212V94.0411H152.288V101.212H154.288ZM152.5 103C153.488 103 154.288 102.2 154.288 101.212H152.288C152.288 101.095 152.383 101 152.5 101V103ZM150.713 101.212C150.713 102.2 151.513 103 152.5 103V101C152.617 101 152.713 101.095 152.713 101.212H150.713ZM150.713 94.0411V101.212H152.713V94.0411H150.713ZM160.104 83.2466L159.134 81.567L157.402 82.567L158.372 84.2466L160.104 83.2466ZM159.921 83.1403C159.991 83.1403 160.064 83.177 160.104 83.2465L158.372 84.2467C158.705 84.8221 159.307 85.1403 159.921 85.1403V83.1403ZM159.814 83.169C159.847 83.1498 159.885 83.1403 159.921 83.1403V85.1403C160.225 85.1403 160.533 85.0632 160.814 84.9009L159.814 83.169ZM159.736 83.4592C159.678 83.3572 159.713 83.2273 159.814 83.169L160.814 84.9009C161.669 84.4074 161.963 83.3146 161.468 82.459L159.736 83.4592ZM158.767 81.7795L159.736 83.4591L161.468 82.4591L160.499 80.7795L158.767 81.7795ZM159.058 81.8562C158.954 81.9167 158.824 81.8795 158.767 81.7802L160.498 80.7788C160.004 79.9243 158.91 79.6302 158.055 80.126L159.058 81.8562ZM159.134 81.5669C159.193 81.6688 159.158 81.7988 159.057 81.8571L158.057 80.1252C157.202 80.6187 156.908 81.7115 157.402 82.5671L159.134 81.5669ZM163.378 89.3391C162.523 89.8326 162.229 90.9254 162.724 91.7811L164.455 90.7808C164.514 90.8828 164.479 91.0127 164.378 91.071L163.378 89.3391ZM165.82 89.9935C165.325 89.1365 164.229 88.8444 163.375 89.3404L164.38 91.0696C164.276 91.1304 164.146 91.0937 164.088 90.9933L165.82 89.9935ZM169.405 96.2043L165.82 89.9935L164.088 90.9934L167.673 97.2042L169.405 96.2043ZM168.751 98.6461C169.605 98.1525 169.899 97.0597 169.405 96.2041L167.673 97.2043C167.614 97.1024 167.65 96.9724 167.751 96.9142L168.751 98.6461ZM167.858 98.8855C168.161 98.8855 168.47 98.8083 168.751 98.646L167.751 96.9142C167.784 96.8949 167.822 96.8855 167.858 96.8855V98.8855ZM166.309 97.9918C166.641 98.5673 167.244 98.8855 167.858 98.8855V96.8855C167.927 96.8855 168.001 96.9222 168.041 96.9916L166.309 97.9918ZM162.723 91.7809L166.309 97.9917L168.041 96.9918L164.456 90.781L162.723 91.7809ZM165.46 77.7364L163.78 76.7667L162.78 78.4987L164.46 79.4685L165.46 77.7364ZM165.353 77.7078C165.389 77.7078 165.427 77.7173 165.46 77.7365L164.46 79.4684C164.741 79.6307 165.049 79.7078 165.353 79.7078V77.7078ZM165.17 77.814C165.21 77.7445 165.283 77.7078 165.353 77.7078V79.7078C165.967 79.7078 166.569 79.3896 166.902 78.8142L165.17 77.814ZM165.247 78.1041C165.146 78.0459 165.111 77.9159 165.17 77.8139L166.902 78.8142C167.396 77.9586 167.102 76.8658 166.247 76.3722L165.247 78.1041ZM163.568 77.1344L165.247 78.1042L166.247 76.3722L164.568 75.4024L163.568 77.1344ZM163.859 77.0554C163.799 77.1585 163.668 77.1923 163.567 77.1339L164.569 75.4029C163.716 74.9092 162.62 75.1983 162.125 76.0582L163.859 77.0554ZM163.78 76.7667C163.881 76.825 163.917 76.955 163.858 77.0569L162.126 76.0567C161.632 76.9123 161.926 78.0051 162.78 78.4986L163.78 76.7667ZM179.992 84.3078L173.781 80.7226L172.781 82.4547L178.992 86.04L179.992 84.3078ZM180.646 86.7499C181.141 85.8943 180.847 84.8015 179.992 84.3079L178.992 86.0399C178.891 85.9816 178.856 85.8516 178.914 85.7497L180.646 86.7499ZM179.097 87.6435C179.713 87.6435 180.314 87.3234 180.646 86.751L178.915 85.7485C178.954 85.6807 179.026 85.6435 179.097 85.6435V87.6435ZM178.204 87.4041C178.485 87.5664 178.794 87.6435 179.097 87.6435V85.6435C179.133 85.6435 179.171 85.653 179.205 85.6723L178.204 87.4041ZM171.994 83.819L178.205 87.4042L179.204 85.6721L172.994 82.0868L171.994 83.819ZM171.339 81.3769C170.845 82.2325 171.139 83.3253 171.994 83.8189L172.994 82.087C173.095 82.1452 173.13 82.2752 173.071 82.3771L171.339 81.3769ZM173.783 80.7239C172.926 80.2258 171.832 80.5241 171.339 81.3769L173.071 82.3771C173.014 82.4763 172.884 82.5146 172.779 82.4534L173.783 80.7239ZM165.403 70.7124H167.341V68.7124H165.403V70.7124ZM165.615 70.4999C165.615 70.6169 165.52 70.7124 165.403 70.7124V68.7124C164.415 68.7124 163.615 69.5124 163.615 70.4999H165.615ZM165.403 70.2874C165.52 70.2874 165.615 70.3829 165.615 70.4999H163.615C163.615 71.4875 164.415 72.2874 165.403 72.2874V70.2874ZM167.341 70.2874H165.403V72.2874H167.341V70.2874ZM167.129 70.4999C167.129 70.3829 167.224 70.2874 167.341 70.2874V72.2874C168.329 72.2874 169.129 71.4875 169.129 70.4999H167.129ZM167.341 70.7124C167.224 70.7124 167.129 70.6169 167.129 70.4999H169.129C169.129 69.5124 168.329 68.7124 167.341 68.7124V70.7124ZM183.212 68.7124H176.041V70.7124H183.212V68.7124ZM185 70.4999C185 69.5124 184.2 68.7124 183.212 68.7124V70.7124C183.095 70.7124 183 70.6169 183 70.4999H185ZM183.212 72.2874C184.2 72.2874 185 71.4875 185 70.4999H183C183 70.3829 183.095 70.2874 183.212 70.2874V72.2874ZM176.041 72.2874H183.212V70.2874H176.041V72.2874ZM174.254 70.4999C174.254 71.4875 175.054 72.2874 176.041 72.2874V70.2874C176.158 70.2874 176.254 70.3829 176.254 70.4999H174.254ZM176.041 68.7124C175.054 68.7124 174.254 69.5124 174.254 70.4999H176.254C176.254 70.6169 176.158 70.7124 176.041 70.7124V68.7124ZM163.675 63.8368C163.744 63.8368 163.818 63.8735 163.858 63.9429L162.126 64.9431C162.458 65.5186 163.061 65.8368 163.675 65.8368V63.8368ZM163.568 63.8655C163.601 63.8462 163.639 63.8368 163.675 63.8368V65.8368C163.978 65.8368 164.287 65.7597 164.568 65.5973L163.568 63.8655ZM165.247 62.8957L163.568 63.8654L164.568 65.5974L166.247 64.6277L165.247 62.8957ZM165.17 63.1859C165.111 63.0839 165.146 62.954 165.247 62.8957L166.247 64.6276C167.102 64.1341 167.396 63.0413 166.902 62.1856L165.17 63.1859ZM165.462 63.2624C165.358 63.3223 165.228 63.2862 165.17 63.1857L166.902 62.1858C166.407 61.3286 165.312 61.0372 164.458 61.5323L165.462 63.2624ZM163.78 64.2332L165.46 63.2634L164.46 61.5314L162.78 62.5011L163.78 64.2332ZM163.858 63.9429C163.917 64.0449 163.881 64.1748 163.78 64.2331L162.78 62.5012C161.926 62.9947 161.632 64.0875 162.126 64.9432L163.858 63.9429ZM180.646 54.2493C180.151 53.3936 179.056 53.1025 178.203 53.5962L179.206 55.327C179.102 55.387 178.973 55.3512 178.915 55.2507L180.646 54.2493ZM179.992 56.6918C180.847 56.1983 181.141 55.1055 180.646 54.2499L178.914 55.2501C178.856 55.1482 178.891 55.0182 178.992 54.9599L179.992 56.6918ZM173.781 60.2772L179.992 56.6919L178.992 54.9598L172.781 58.5451L173.781 60.2772ZM172.888 60.5165C173.192 60.5165 173.5 60.4394 173.781 60.2771L172.781 58.5453C172.814 58.526 172.852 58.5165 172.888 58.5165V60.5165ZM171.339 59.6229C171.672 60.1983 172.274 60.5165 172.888 60.5165V58.5165C172.958 58.5165 173.031 58.5532 173.071 58.6227L171.339 59.6229ZM171.994 57.1809C171.139 57.6745 170.845 58.7673 171.339 59.6229L173.071 58.6226C173.13 58.7246 173.095 58.8546 172.994 58.9128L171.994 57.1809ZM178.205 53.5955L171.994 57.1808L172.994 58.9129L179.204 55.3277L178.205 53.5955ZM159.134 59.4329L160.104 57.7534L158.372 56.7533L157.402 58.4329L159.134 59.4329ZM159.057 59.1429C159.158 59.2011 159.193 59.3311 159.134 59.4331L157.402 58.4328C156.908 59.2884 157.202 60.3812 158.057 60.8748L159.057 59.1429ZM158.95 59.1142C158.986 59.1142 159.024 59.1236 159.057 59.1429L158.057 60.8747C158.338 61.037 158.646 61.1142 158.95 61.1142V59.1142ZM158.767 59.2203C158.807 59.1509 158.88 59.1142 158.95 59.1142V61.1142C159.564 61.1142 160.166 60.796 160.499 60.2205L158.767 59.2203ZM159.736 57.5408L158.767 59.2204L160.499 60.2204L161.468 58.5409L159.736 57.5408ZM159.814 57.8309C159.713 57.7726 159.678 57.6427 159.736 57.5407L161.468 58.541C161.963 57.6853 161.669 56.5925 160.814 56.099L159.814 57.8309ZM160.105 57.7527C160.046 57.8546 159.915 57.8896 159.813 57.8305L160.815 56.0994C159.961 55.605 158.866 55.8969 158.372 56.754L160.105 57.7527ZM163.378 51.6606C163.659 51.8229 163.967 51.9001 164.271 51.9001V49.9001C164.307 49.9001 164.345 49.9095 164.378 49.9288L163.378 51.6606ZM162.724 49.2187C162.229 50.0743 162.523 51.1671 163.378 51.6606L164.378 49.9287C164.479 49.987 164.514 50.117 164.455 50.2189L162.724 49.2187ZM166.309 43.0081L162.723 49.2189L164.456 50.2188L168.041 44.008L166.309 43.0081ZM168.752 42.3541C167.897 41.8596 166.801 42.1525 166.308 43.0092L168.042 44.0068C167.982 44.1099 167.852 44.1444 167.75 44.0851L168.752 42.3541ZM169.405 44.7956C169.899 43.94 169.605 42.8472 168.751 42.3537L167.751 44.0856C167.65 44.0273 167.614 43.8974 167.673 43.7954L169.405 44.7956ZM165.82 51.0063L169.405 44.7955L167.673 43.7956L164.088 50.0064L165.82 51.0063ZM164.271 51.9001C164.887 51.9001 165.488 51.5799 165.819 51.0076L164.089 50.0051C164.128 49.9372 164.2 49.9001 164.271 49.9001V51.9001Z" fill="white" mask="url(#path-3-outside-1)"/>
</svg>
