<svg width="88" height="88" viewBox="0 0 88 88" fill="none" xmlns="http://www.w3.org/2000/svg">
<path fill-rule="evenodd" clip-rule="evenodd" d="M44 84C66.0914 84 84 66.0914 84 44C84 21.9086 66.0914 4 44 4C21.9086 4 4 21.9086 4 44C4 66.0914 21.9086 84 44 84ZM44 88C68.3005 88 88 68.3005 88 44C88 19.6995 68.3005 0 44 0C19.6995 0 0 19.6995 0 44C0 68.3005 19.6995 88 44 88ZM31 29C31 27.8954 31.8954 27 33 27H37C38.1046 27 39 27.8954 39 29V59C39 60.1046 38.1046 61 37 61H33C31.8954 61 31 60.1046 31 59V29ZM51 27C49.8954 27 49 27.8954 49 29V59C49 60.1046 49.8954 61 51 61H55C56.1046 61 57 60.1046 57 59V29C57 27.8954 56.1046 27 55 27H51Z" fill="white"/>
</svg>
