<svg width="200" height="200" viewBox="0 0 200 200" fill="none" xmlns="http://www.w3.org/2000/svg">
<path fill-rule="evenodd" clip-rule="evenodd" d="M98.7959 63.8508C97.0135 65.0417 94.9179 65.6774 92.7742 65.6774C89.9005 65.6746 87.1453 64.5317 85.1133 62.4997C83.0812 60.4676 81.9384 57.7124 81.9355 54.8387C81.9355 52.695 82.5712 50.5995 83.7621 48.8171C84.9531 47.0346 86.6459 45.6454 88.6264 44.8251C90.6069 44.0047 92.7862 43.7901 94.8887 44.2083C96.9912 44.6265 98.9225 45.6588 100.438 47.1746C101.954 48.6904 102.986 50.6217 103.405 52.7242C103.823 54.8267 103.608 57.006 102.788 58.9865C101.968 60.967 100.578 62.6598 98.7959 63.8508ZM96.7887 48.8307C95.6004 48.0367 94.2033 47.6129 92.7742 47.6129C90.8578 47.6129 89.0199 48.3742 87.6648 49.7293C86.3097 51.0844 85.5484 52.9223 85.5484 54.8387C85.5484 56.2678 85.9722 57.6649 86.7662 58.8532C87.5602 60.0414 88.6887 60.9676 90.009 61.5145C91.3294 62.0614 92.7822 62.2045 94.1839 61.9257C95.5856 61.6469 96.8731 60.9587 97.8836 59.9481C98.8942 58.9376 99.5824 57.6501 99.8612 56.2484C100.14 54.8467 99.9969 53.3939 99.45 52.0735C98.9031 50.7532 97.9769 49.6247 96.7887 48.8307ZM124.046 70.6198C122.398 72.0867 120.27 72.8991 118.065 72.9032C115.669 72.9032 113.372 71.9516 111.678 70.2577C109.984 68.5638 109.032 66.2664 109.032 63.8709C109.032 61.4754 109.984 59.178 111.678 57.4841C113.372 55.7903 115.669 54.8387 118.065 54.8387C119.762 54.8388 121.424 55.3225 122.857 56.2332C124.132 55.2859 125.689 54.7947 127.277 54.8387C127.696 52.7782 128.82 50.9283 130.457 49.6079C132.093 48.2875 134.139 47.5793 136.241 47.6054C138.343 47.6316 140.371 48.3903 141.974 49.7509C143.577 51.1116 144.655 52.9888 145.022 55.059C145.661 54.9138 146.313 54.8398 146.968 54.8387C149.363 54.8387 151.661 55.7903 153.355 57.4841C155.048 59.178 156 61.4754 156 63.8709C156 66.2664 155.048 68.5638 153.355 70.2577C151.661 71.9516 149.363 72.9032 146.968 72.9032C146.238 72.9032 145.51 72.8135 144.802 72.6358C143.937 73.4775 142.877 74.0912 141.717 74.4217C140.557 74.7521 139.332 74.789 138.154 74.529C136.559 75.8197 134.568 76.5214 132.516 76.5161C130.672 76.5138 128.872 75.9478 127.358 74.894C125.844 73.8402 124.688 72.3488 124.046 70.6198ZM121.739 59.9148C120.744 58.9793 119.43 58.4563 118.065 58.4516C117.09 58.4489 116.133 58.7089 115.294 59.2042C114.455 59.6995 113.766 60.4118 113.297 61.2661C112.829 62.1204 112.6 63.0852 112.633 64.0589C112.667 65.0325 112.963 65.9791 113.489 66.7989C114.016 67.6187 114.753 68.2815 115.625 68.7174C116.496 69.1534 117.468 69.3464 118.44 69.2762C119.412 69.2059 120.347 68.8751 121.146 68.3183C121.946 67.7616 122.58 66.9997 122.983 66.1127C123.127 65.7975 123.359 65.5302 123.65 65.3429C123.942 65.1555 124.281 65.0559 124.627 65.056C124.913 65.0562 125.195 65.1243 125.449 65.2547C125.6 65.3315 125.756 65.3984 125.915 65.4552C126.279 65.5814 126.594 65.8208 126.812 66.1383C127.031 66.4558 127.142 66.8349 127.129 67.2201C127.128 67.2502 127.121 67.3126 127.114 67.3774L127.114 67.3778V67.3779L127.114 67.3781C127.106 67.4528 127.097 67.5304 127.097 67.5651C127.117 68.6336 127.453 69.6722 128.063 70.5502C128.672 71.4283 129.527 72.1066 130.521 72.4999C131.515 72.8931 132.602 72.9838 133.647 72.7605C134.693 72.5372 135.648 72.0099 136.395 71.2449C136.646 70.9839 136.969 70.8044 137.324 70.7296C137.678 70.6549 138.047 70.6884 138.382 70.8258C139.145 71.1321 139.99 71.17 140.777 70.9334C141.565 70.6967 142.249 70.1996 142.717 69.5233C142.951 69.182 143.296 68.9315 143.693 68.8138C144.09 68.696 144.515 68.7182 144.898 68.8766C145.638 69.1838 146.438 69.3229 147.238 69.2838C148.039 69.2448 148.821 69.0285 149.528 68.6507C150.235 68.2728 150.85 67.7428 151.327 67.0988C151.805 66.4548 152.134 65.7128 152.29 64.9265C152.446 64.1401 152.426 63.3289 152.23 62.5513C152.035 61.7737 151.67 61.0491 151.161 60.4297C150.652 59.8104 150.012 59.3117 149.287 58.9696C148.561 58.6275 147.769 58.4506 146.968 58.4516C145.983 58.4554 145.019 58.7324 144.182 59.2518C143.888 59.4294 143.55 59.5196 143.207 59.5119C142.864 59.5041 142.53 59.3987 142.244 59.208C141.959 59.0173 141.733 58.7492 141.595 58.4351C141.456 58.121 141.41 57.774 141.462 57.4345C141.511 57.174 141.54 56.9101 141.548 56.6451C141.548 55.2078 140.977 53.8294 139.961 52.813C138.945 51.7967 137.566 51.2258 136.129 51.2258C134.692 51.2258 133.313 51.7967 132.297 52.813C131.281 53.8294 130.71 55.2078 130.71 56.6451C130.71 56.6703 130.717 56.7175 130.725 56.7648C130.732 56.8092 130.74 56.8537 130.74 56.8799C130.758 57.1786 130.702 57.4769 130.576 57.7482C130.45 58.0195 130.258 58.2553 130.019 58.4344C129.779 58.6135 129.499 58.7303 129.203 58.7742C128.907 58.8182 128.605 58.788 128.323 58.6864C127.634 58.4111 126.875 58.3666 126.158 58.5594C125.442 58.7522 124.807 59.172 124.349 59.7558C124.192 59.9427 123.998 60.0957 123.779 60.2055C123.561 60.3152 123.322 60.3795 123.078 60.3943C122.834 60.4092 122.589 60.3743 122.359 60.2919C122.129 60.2095 121.918 60.0812 121.739 59.9148ZM107.226 105.419C107.705 105.419 108.164 105.61 108.503 105.949L155.471 152.916C155.723 153.169 155.895 153.491 155.965 153.841C156.035 154.192 155.999 154.555 155.862 154.885C155.726 155.215 155.494 155.497 155.197 155.695C154.9 155.894 154.551 156 154.194 156H45.8065C45.4493 156 45.1001 155.894 44.8031 155.695C44.5061 155.497 44.2746 155.215 44.1379 154.885C44.0012 154.555 43.9655 154.192 44.0351 153.841C44.1048 153.491 44.2768 153.169 44.5294 152.916L62.5939 134.852C62.9326 134.513 63.392 134.323 63.871 134.323H68.5425L89.6907 113.174C90.0294 112.836 90.4888 112.645 90.9678 112.645H93.8329L100.529 105.949C100.868 105.61 101.327 105.419 101.807 105.419V81.9355C101.807 81.4564 101.997 80.9969 102.336 80.6582C102.674 80.3194 103.134 80.1291 103.613 80.1291H118.065C118.544 80.1291 119.003 80.3194 119.342 80.6582C119.681 80.9969 119.871 81.4564 119.871 81.9355V83.742H125.29C125.77 83.742 126.229 83.9323 126.568 84.2711C126.907 84.6098 127.097 85.0693 127.097 85.5484V96.3871C127.097 96.8662 126.907 97.3257 126.568 97.6645C126.229 98.0033 125.77 98.1936 125.29 98.1936H110.839C110.36 98.1936 109.9 98.0033 109.561 97.6645C109.223 97.3257 109.032 96.8662 109.032 96.3871V94.5807H105.419V105.419H107.226ZM116.258 83.742H105.419V90.9678H110.839C111.318 90.9678 111.777 91.1581 112.116 91.4969C112.455 91.8356 112.645 92.2951 112.645 92.7742V94.5807H123.484V87.3549H118.065C117.585 87.3549 117.126 87.1645 116.787 86.8258C116.448 86.487 116.258 86.0275 116.258 85.5484V83.742ZM64.6189 137.936L50.1673 152.387H128.155L113.704 137.936H107.226C106.747 137.935 106.287 137.745 105.949 137.406L99.2522 130.71H93.5221L86.8256 137.406C86.4869 137.745 86.0275 137.935 85.5485 137.936H64.6189ZM115.729 134.852L133.264 152.387H149.833L106.478 109.032H102.554L95.8579 115.729C95.5192 116.068 95.0598 116.258 94.5807 116.258H91.7157L73.6512 134.323H84.8006L91.4971 127.626C91.8358 127.287 92.2952 127.097 92.7743 127.097H100C100.479 127.097 100.939 127.287 101.277 127.626L107.974 134.323H114.452C114.931 134.323 115.39 134.513 115.729 134.852ZM53.0323 89.1614C53.763 89.1622 54.4911 89.073 55.2 88.8958C56.0649 89.7368 57.125 90.3501 58.2852 90.6805C59.4454 91.0109 60.6695 91.0482 61.8477 90.789C63.4427 92.0784 65.4329 92.7794 67.4839 92.7743C69.3285 92.7722 71.1284 92.2064 72.6424 91.1525C74.1563 90.0986 75.3119 88.6072 75.9543 86.878C77.208 87.9943 78.7481 88.7391 80.4015 89.0289C82.055 89.3187 83.7565 89.1419 85.3151 88.5185C86.8737 87.895 88.2277 86.8496 89.2253 85.4995C90.2228 84.1493 90.8243 82.5479 90.9623 80.8749C91.1004 79.2019 90.7694 77.5236 90.0067 76.0282C89.244 74.5328 88.0796 73.2796 86.6442 72.4091C85.2089 71.5387 83.5593 71.0855 81.8807 71.1003C80.2021 71.1152 78.5609 71.5975 77.1412 72.4932C75.8705 71.5378 74.3115 71.0451 72.7226 71.0968C72.3032 69.0374 71.1788 67.1886 69.5429 65.869C67.9071 64.5494 65.8623 63.8416 63.7607 63.8675C61.6591 63.8934 59.6324 64.6514 58.0295 66.0109C56.4267 67.3703 55.3481 69.2462 54.9796 71.3154C54.3406 71.1706 53.6875 71.0973 53.0323 71.0968C50.6368 71.0968 48.3394 72.0484 46.6455 73.7423C44.9516 75.4362 44 77.7336 44 80.1291C44 82.5246 44.9516 84.822 46.6455 86.5159C48.3394 88.2097 50.6368 89.1614 53.0323 89.1614ZM53.0323 74.7097C54.0169 74.7136 54.9812 74.9906 55.8178 75.51C56.1129 75.685 56.4518 75.7723 56.7947 75.7618C57.1377 75.7512 57.4705 75.6432 57.7543 75.4504C58.04 75.256 58.2649 74.9847 58.403 74.668C58.5411 74.3512 58.5867 74.0018 58.5347 73.6602C58.4868 73.4105 58.459 73.1574 58.4516 72.9033C58.4437 71.466 59.0071 70.0844 60.0178 69.0625C61.0286 68.0406 62.4039 67.462 63.8412 67.4541C65.2785 67.4462 66.66 68.0096 67.682 69.0203C68.7039 70.0311 69.2824 71.4064 69.2903 72.8437C69.2903 72.8738 69.2793 72.9596 69.2701 73.0319L69.27 73.0319L69.27 73.0321C69.2643 73.0769 69.2592 73.1166 69.2578 73.1345C69.24 73.4331 69.2967 73.7315 69.4226 74.0028C69.5486 74.2741 69.74 74.5099 69.9796 74.689C70.2192 74.868 70.4996 74.9848 70.7954 75.0288C71.0913 75.0728 71.3935 75.0426 71.6748 74.941C72.3639 74.6657 73.1235 74.6211 73.84 74.8139C74.5565 75.0067 75.1912 75.4265 75.649 76.0104C75.8067 76.1973 76.0006 76.3503 76.2191 76.46C76.4376 76.5698 76.6761 76.634 76.9202 76.6489C77.1642 76.6638 77.4087 76.6289 77.6389 76.5465C77.8691 76.4641 78.0802 76.3358 78.2594 76.1694C79.0987 75.3874 80.1645 74.8919 81.3033 74.7543C82.4422 74.6167 83.5953 74.8439 84.5968 75.4035C85.5982 75.963 86.3963 76.8258 86.8761 77.8678C87.3559 78.9098 87.4927 80.0771 87.2668 81.2018C87.0409 82.3265 86.4639 83.3504 85.6189 84.1263C84.774 84.9022 83.7046 85.3899 82.5648 85.5193C81.425 85.6487 80.2735 85.413 79.2761 84.8463C78.2788 84.2795 77.487 83.4109 77.0147 82.3655C76.9132 82.1439 76.7679 81.9452 76.5876 81.7813C76.4072 81.6173 76.1956 81.4916 75.9654 81.4116C75.7352 81.3316 75.4912 81.299 75.2481 81.3158C75.005 81.3326 74.7677 81.3984 74.5507 81.5092C74.3998 81.586 74.2442 81.653 74.0846 81.7097C73.7205 81.836 73.4063 82.0753 73.1879 82.3928C72.9695 82.7104 72.8583 83.0894 72.8707 83.4746C72.8704 83.5648 72.8813 83.6546 72.9032 83.742C72.9032 85.1793 72.3323 86.5577 71.3159 87.5741C70.2996 88.5904 68.9212 89.1614 67.4839 89.1614C66.7574 89.1624 66.0382 89.016 65.37 88.731C64.7018 88.4459 64.0984 88.0282 63.5964 87.503C63.3453 87.2421 63.0216 87.0625 62.6673 86.9878C62.313 86.9131 61.9444 86.9466 61.6093 87.0839C60.846 87.3906 60.0012 87.4287 59.2134 87.192C58.4257 86.9554 57.7417 86.458 57.2738 85.7815C57.0395 85.4402 56.6951 85.1897 56.2982 85.0719C55.9012 84.9542 55.4759 84.9764 55.0934 85.1348C54.3525 85.4421 53.5527 85.5812 52.7515 85.5419C51.9504 85.5027 51.1679 85.2861 50.4607 84.9077C49.7534 84.5294 49.1389 83.9988 48.6616 83.3542C48.1842 82.7096 47.8559 81.9671 47.7004 81.1802C47.5448 80.3933 47.5658 79.5817 47.7619 78.804C47.9581 78.0262 48.3244 77.3017 48.8345 76.6827C49.3446 76.0637 49.9857 75.5656 50.7116 75.2244C51.4376 74.8832 52.2302 74.7075 53.0323 74.7097Z" fill="white"/>
</svg>
