<svg width="88" height="88" viewBox="0 0 88 88" fill="none" xmlns="http://www.w3.org/2000/svg">
<path fill-rule="evenodd" clip-rule="evenodd" d="M84 44C84 66.0914 66.0914 84 44 84C21.9086 84 4 66.0914 4 44C4 21.9086 21.9086 4 44 4C66.0914 4 84 21.9086 84 44ZM88 44C88 68.3005 68.3005 88 44 88C19.6995 88 0 68.3005 0 44C0 19.6995 19.6995 0 44 0C68.3005 0 88 19.6995 88 44ZM36.5 58.7224L60.5 44.866C61.1667 44.4811 61.1667 43.5189 60.5 43.134L36.5 29.2776C35.8333 28.8926 35 29.3738 35 30.1436V57.8564C35 58.6262 35.8333 59.1074 36.5 58.7224Z" fill="white"/>
</svg>
