<svg width="60" height="60" viewBox="0 0 60 60" fill="none" xmlns="http://www.w3.org/2000/svg">
<circle cx="30" cy="30" r="28" stroke="white" stroke-width="4"/>
<path d="M26.2806 28.9973L24.5539 27.3684H32.8684C35.1773 27.3684 36.9737 29.2374 36.9737 31.6521C36.9737 34.0435 35.216 35.7632 32.8684 35.7632H22.3684C22.104 35.7632 21.8889 35.8922 21.751 36.0355C21.6156 36.1761 21.5 36.3868 21.5 36.6316C21.5 36.8764 21.6156 37.0871 21.751 37.2277C21.8889 37.371 22.104 37.5 22.3684 37.5H32.8684C36.134 37.5 38.7105 34.9736 38.7105 31.6521C38.7105 28.3526 36.1714 25.6316 32.8684 25.6316H24.5518L26.2782 23.9992C26.5492 23.7494 26.6331 23.3402 26.4816 23.0038C26.3253 22.657 26.0015 22.5 25.6842 22.5C25.5699 22.5 25.4608 22.5257 25.3708 22.5598C25.2843 22.5926 25.1773 22.6477 25.085 22.7368L21.7718 25.8659L21.7715 25.8662C21.5838 26.0438 21.5063 26.2829 21.5063 26.4971C21.5063 26.7114 21.5838 26.9504 21.7715 27.128L21.7718 27.1283L25.0873 30.2596C25.0873 30.2596 25.0874 30.2597 25.0875 30.2597C25.0875 30.2598 25.0876 30.2598 25.0876 30.2599C25.4284 30.582 25.9928 30.5663 26.3151 30.2256C26.6375 29.8849 26.6219 29.3203 26.2812 28.9978L26.2806 28.9973Z" fill="white" stroke="white"/>
<rect x="38" y="20" width="3" height="26" rx="1.5" transform="rotate(45 38 20)" fill="white"/>
</svg>
