<svg width="21" height="18" viewBox="0 0 21 18" fill="none" xmlns="http://www.w3.org/2000/svg">
<path d="M11.5863 0.123633L6.10149 4.63484C6.03658 4.69975 5.93921 4.7322 5.8094 4.76466L0.486821 5.34884C0.227183 5.3813 0 5.60848 0 5.86812V12.1319C0 12.3915 0.194728 12.6512 0.486821 12.6512L5.84185 13.2353C5.93921 13.2353 6.03658 13.3003 6.13394 13.3652L11.6188 17.8764C11.9758 18.1685 12.4951 17.9088 12.4951 17.4545V0.545545C12.4626 0.0911787 11.9433 -0.168459 11.5863 0.123633Z" fill="white"/>
<path d="M17.0711 15.3124L16.2598 14.3063C16.779 13.8844 17.2659 13.3976 17.6553 12.8134C19.6351 9.95739 19.1807 6.03037 16.5843 3.72608L17.4606 2.75244C20.5438 5.51109 21.0955 10.1521 18.7588 13.5599C18.272 14.209 17.7202 14.8256 17.0711 15.3124Z" fill="white"/>
<path d="M15.0587 12.5537L14.2148 11.5476C14.442 11.3529 14.6692 11.1257 14.8315 10.8661C15.87 9.37318 15.6104 7.36099 14.2148 6.19262L15.0587 5.18652C16.941 6.80926 17.298 9.53546 15.9025 11.5801C15.6753 11.9696 15.3832 12.2941 15.0587 12.5537Z" fill="white"/>
</svg>
